<?xml version="1.0" encoding="UTF-8"?>
<svg width="45px" height="29px" viewBox="0 0 45 29" version="1.1" xmlns="http://www.w3.org/2000/svg" xmlns:xlink="http://www.w3.org/1999/xlink">
    <!-- Generator: Sketch 50.2 (55047) - http://www.bohemiancoding.com/sketch -->
    <title>Group 2</title>
    <desc>Created with Sketch.</desc>
    <defs>
        <polygon id="path-1" points="17.5268878 28.4693878 0.0183673469 28.4693878 0.0183673469 0.25622449 17.5268878 0.25622449 35.0354082 0.25622449 35.0354082 28.4693878 17.5268878 28.4693878"></polygon>
    </defs>
    <g id="Page-1" stroke="none" stroke-width="1" fill="none" fill-rule="evenodd">
        <g id="Søknad-om-å-beholde-sykepenger-under-opphold-utenfor-norge" transform="translate(-38.000000, -14.000000)">
            <g id="Group-2" transform="translate(38.000000, 14.000000)">
                <g id="nav_logo_SortHvit">
                    <g id="Group-4">
                        <mask id="mask-2" fill="white">
                            <use xlink:href="#path-1"></use>
                        </mask>
                        <g id="Clip-2"></g>
                        <path d="M35.0354082,14.3635714 C35.0354082,22.1537755 28.7185714,28.4693878 20.9268367,28.4693878 C13.1381633,28.4693878 6.82193878,22.1537755 6.82193878,14.3635714 C6.82193878,6.5727551 13.1381633,0.25622449 20.9268367,0.25622449 C28.7185714,0.25622449 35.0354082,6.5727551 35.0354082,14.3635714" id="Fill-1" fill="#1A1919" mask="url(#mask-2)"></path>
                        <polyline id="Fill-3" fill="#1A1919" mask="url(#mask-2)" points="0 20.5233673 2.88306122 13.3870408 5.65346939 13.3870408 2.77408163 20.5233673 0 20.5233673"></polyline>
                    </g>
                    <polyline id="Fill-5" fill="#1A1919" points="35.5790816 20.5233673 38.4254082 13.3870408 39.9361224 13.3870408 37.0894898 20.5233673 35.5790816 20.5233673"></polyline>
                    <polyline id="Fill-6" fill="#1A1919" points="41.1768367 20.5233673 44.0228571 13.3870408 44.8252041 13.3870408 41.9785714 20.5233673 41.1768367 20.5233673"></polyline>
                    <path d="M22.195102,17.9439796 L20.7419388,17.9439796 C20.1639796,17.9439796 19.6934694,17.4756122 19.6934694,16.8970408 C19.6934694,16.3184694 20.1639796,15.8476531 20.7419388,15.8476531 L21.1484694,15.8476531 C21.7255102,15.8476531 22.195102,16.3184694 22.195102,16.8970408 L22.195102,17.9439796 Z M32.9595918,13.3870408 L30.4521429,13.3870408 C30.4521429,13.3870408 30.2794898,13.3870408 30.2185714,13.5397959 L28.8306122,17.787551 L27.4438776,13.5397959 C27.3826531,13.3870408 27.2087755,13.3870408 27.2087755,13.3870408 L22.3870408,13.3870408 C22.2826531,13.3870408 22.195102,13.4745918 22.195102,13.5783673 L22.195102,15.0208163 C22.195102,13.8765306 20.9773469,13.3870408 20.2643878,13.3870408 C18.6670408,13.3870408 17.5983673,14.4391837 17.2656122,16.0377551 C17.2472449,14.9776531 17.1593878,14.597449 16.8737755,14.2080612 C16.7421429,14.0176531 16.5526531,13.8566327 16.3460204,13.7240816 C15.9208163,13.474898 15.5387755,13.3870408 14.7177551,13.3870408 L13.7543878,13.3870408 C13.7543878,13.3870408 13.579898,13.3870408 13.5183673,13.5397959 L12.6413265,15.7123469 L12.6413265,13.5783673 C12.6413265,13.4745918 12.555,13.3870408 12.4506122,13.3870408 L10.2205102,13.3870408 C10.2205102,13.3870408 10.0481633,13.3870408 9.98571429,13.5397959 L9.07408163,15.799898 C9.07408163,15.799898 8.98285714,16.0258163 9.19102041,16.0258163 L10.0481633,16.0258163 L10.0481633,20.3314286 C10.0481633,20.4385714 10.1323469,20.5233673 10.2397959,20.5233673 L12.4506122,20.5233673 C12.555,20.5233673 12.6413265,20.4385714 12.6413265,20.3314286 L12.6413265,16.0258163 L13.5030612,16.0258163 C13.9977551,16.0258163 14.102449,16.0392857 14.295,16.1289796 C14.4107143,16.1727551 14.515102,16.2603061 14.5723469,16.3634694 C14.6886735,16.5826531 14.7177551,16.8462245 14.7177551,17.6237755 L14.7177551,20.3314286 C14.7177551,20.4385714 14.8037755,20.5233673 14.9096939,20.5233673 L17.0289796,20.5233673 C17.0289796,20.5233673 17.2683673,20.5233673 17.3629592,20.2867347 L17.832551,19.1256122 C18.4567347,20.0005102 19.4846939,20.5233673 20.7618367,20.5233673 L21.0410204,20.5233673 C21.0410204,20.5233673 21.2819388,20.5233673 21.3771429,20.2867347 L22.195102,18.2608163 L22.195102,20.3314286 C22.195102,20.4385714 22.2826531,20.5233673 22.3870408,20.5233673 L24.5497959,20.5233673 C24.5497959,20.5233673 24.7888776,20.5233673 24.8843878,20.2867347 C24.8843878,20.2867347 25.750102,18.1386735 25.7528571,18.1221429 L25.7543878,18.1221429 C25.787449,17.9439796 25.5618367,17.9439796 25.5618367,17.9439796 L24.7897959,17.9439796 L24.7897959,14.2582653 L27.2185714,20.2867347 C27.3137755,20.5233673 27.552551,20.5233673 27.552551,20.5233673 L30.1083673,20.5233673 C30.1083673,20.5233673 30.3489796,20.5233673 30.4432653,20.2867347 L33.1362245,13.6181633 C33.229898,13.3870408 32.9595918,13.3870408 32.9595918,13.3870408 L32.9595918,13.3870408 Z" id="Fill-7" fill="#FFFFFE"></path>
                </g>
            </g>
        </g>
    </g>
</svg>