<?xml version="1.0" encoding="UTF-8"?>
<svg width="20px" height="20px" viewBox="0 0 20 20" version="1.1" xmlns="http://www.w3.org/2000/svg" xmlns:xlink="http://www.w3.org/1999/xlink">
    <!-- Generator: Sketch 50.2 (55047) - http://www.bohemiancoding.com/sketch -->
    <title>personikon</title>
    <desc>Created with Sketch.</desc>
    <defs></defs>
    <g id="Page-1" stroke="none" stroke-width="1" fill="none" fill-rule="evenodd">
        <g id="Søknad-om-å-beholde-sykepenger-under-opphold-utenfor-norge" transform="translate(-39.000000, -97.000000)" fill="#3E3832">
            <g id="personikon" transform="translate(39.000000, 97.000000)">
                <g id="Layer_1">
                    <path d="M10,0 C4.4771525,-3.38176876e-16 6.76353751e-16,4.4771525 0,10 C-6.76353751e-16,15.5228475 4.4771525,20 10,20 C15.5228475,20 20,15.5228475 20,10 C20,7.3478351 18.9464316,4.80429597 17.0710678,2.92893219 C15.195704,1.0535684 12.6521649,1.62398263e-16 10,0 L10,0 Z M0.833333333,10 C0.82775007,5.89299063 3.55457877,2.28351418 7.50675903,1.16645177 C11.4589393,0.0493893656 15.6717707,1.69740836 17.8169106,5.1996836 C19.9620506,8.70195883 19.5158849,13.2036087 16.725,16.2166667 C15.5872641,15.5901946 14.3896143,15.079309 13.15,14.6916667 L12.1083333,14.3083333 L12.1083333,12.75 C13.4804137,11.7388957 14.27097,10.120434 14.225,8.41666667 C14.225,5.65833333 12.325,3.41666667 10,3.41666667 C7.675,3.41666667 5.775,5.65833333 5.775,8.41666667 C5.72659128,10.1628565 6.55958991,11.8163275 7.99166667,12.8166667 L7.99166667,14.3083333 L6.93333333,14.6916667 C5.68530868,15.0887632 4.47947604,15.6079411 3.33333333,16.2416667 C1.73949713,14.5528699 0.84600123,12.3221085 0.833333333,10 L0.833333333,10 Z M6.575,8.41666667 C6.575,6.13333333 8.10833333,4.25 10,4.25 C11.8916667,4.25 13.425,6.16666667 13.425,8.41666667 C13.425,10.6666667 11.8916667,12.5833333 10,12.5833333 C8.10833333,12.5833333 6.575,10.7 6.575,8.41666667 L6.575,8.41666667 Z M3.9,16.825 C4.96658176,16.2653895 6.08239741,15.8051155 7.23333333,15.45 L8.56666667,14.9583333 C8.72246946,14.8993291 8.82538596,14.7499342 8.825,14.5833333 L8.825,13.2166667 C9.61642581,13.5038138 10.4835742,13.5038138 11.275,13.2166667 L11.275,14.575 C11.274614,14.7416009 11.3775305,14.8909958 11.5333333,14.95 L12.8416667,15.4333333 C13.9775713,15.7995303 15.0767897,16.2710225 16.125,16.8416667 C12.6406533,19.9508984 7.37585599,19.9437207 3.9,16.825 L3.9,16.825 Z" id="Shape"></path>
                </g>
            </g>
        </g>
    </g>
</svg>